<svg width="104" height="118" viewBox="0 0 104 118" fill="none" xmlns="http://www.w3.org/2000/svg">
<path opacity="0.95" d="M78 21.6H25.2C19.8981 21.6 15.6 25.898 15.6 31.2V108C15.6 113.302 19.8981 117.6 25.2 117.6H78C83.3019 117.6 87.6 113.302 87.6 108V31.2C87.6 25.898 83.3019 21.6 78 21.6Z" fill="url(#paint0_linear_5_4)"/>
<path opacity="0.3" d="M78 26.4H25.2C22.549 26.4 20.4 28.5491 20.4 31.2V108C20.4 110.651 22.549 112.8 25.2 112.8H78C80.651 112.8 82.8 110.651 82.8 108V31.2C82.8 28.5491 80.651 26.4 78 26.4Z" fill="white"/>
<path opacity="0.8" d="M15.6 64.8H87.6" stroke="#E74C3C" stroke-width="1.5"/>
<path opacity="0.9" d="M85.2 76.8C85.2 75.4745 84.1255 74.4 82.8 74.4C81.4745 74.4 80.4 75.4745 80.4 76.8V91.2C80.4 92.5255 81.4745 93.6 82.8 93.6C84.1255 93.6 85.2 92.5255 85.2 91.2V76.8Z" fill="#E74C3C"/>
<path opacity="0.9" d="M68.4 33.6H34.8C30.8236 33.6 27.6 36.8235 27.6 40.8C27.6 44.7764 30.8236 48 34.8 48H68.4C72.3765 48 75.6 44.7764 75.6 40.8C75.6 36.8235 72.3765 33.6 68.4 33.6Z" fill="#2C3E50"/>
<path d="M39.6 43.2C40.9255 43.2 42 42.1255 42 40.8C42 39.4745 40.9255 38.4 39.6 38.4C38.2745 38.4 37.2 39.4745 37.2 40.8C37.2 42.1255 38.2745 43.2 39.6 43.2Z" fill="#27AE60"/>
<path d="M51.6 43.2C52.9255 43.2 54 42.1255 54 40.8C54 39.4745 52.9255 38.4 51.6 38.4C50.2745 38.4 49.2 39.4745 49.2 40.8C49.2 42.1255 50.2745 43.2 51.6 43.2Z" fill="#F39C12"/>
<path d="M63.6 43.2C64.9255 43.2 66 42.1255 66 40.8C66 39.4745 64.9255 38.4 63.6 38.4C62.2745 38.4 61.2 39.4745 61.2 40.8C61.2 42.1255 62.2745 43.2 63.6 43.2Z" fill="#E74C3C"/>
<path opacity="0.9" d="M66 0H37.2C34.549 0 32.4 2.14903 32.4 4.8V14.4C32.4 17.051 34.549 19.2 37.2 19.2H66C68.651 19.2 70.8 17.051 70.8 14.4V4.8C70.8 2.14903 68.651 0 66 0Z" fill="#F1C40F"/>
<path opacity="0.8" d="M63.6 4.80005H39.6C38.2745 4.80005 37.2 5.87457 37.2 7.20005V12C37.2 13.3255 38.2745 14.4 39.6 14.4H63.6C64.9255 14.4 66 13.3255 66 12V7.20005C66 5.87457 64.9255 4.80005 63.6 4.80005Z" fill="white"/>
<path d="M44.4 10.8C45.0627 10.8 45.6 10.2628 45.6 9.60002C45.6 8.93728 45.0627 8.40002 44.4 8.40002C43.7372 8.40002 43.2 8.93728 43.2 9.60002C43.2 10.2628 43.7372 10.8 44.4 10.8Z" fill="#E74C3C"/>
<path d="M51.6 10.8C52.2627 10.8 52.8 10.2628 52.8 9.60002C52.8 8.93728 52.2627 8.40002 51.6 8.40002C50.9373 8.40002 50.4 8.93728 50.4 9.60002C50.4 10.2628 50.9373 10.8 51.6 10.8Z" fill="#E74C3C"/>
<path d="M58.8 10.8C59.4627 10.8 60 10.2628 60 9.60002C60 8.93728 59.4627 8.40002 58.8 8.40002C58.1373 8.40002 57.6 8.93728 57.6 9.60002C57.6 10.2628 58.1373 10.8 58.8 10.8Z" fill="#E74C3C"/>
<path opacity="0.9" d="M32.4 96C36.3765 96 39.6 92.7764 39.6 88.8C39.6 84.8235 36.3765 81.6 32.4 81.6C28.4236 81.6 25.2 84.8235 25.2 88.8C25.2 92.7764 28.4236 96 32.4 96Z" fill="white"/>
<path d="M32.4 81.6C34 80 35.6 80 37.2 81.6" stroke="#27AE60"/>
<path d="M32.4 91.2C33.7255 91.2 34.8 90.1255 34.8 88.8C34.8 87.4745 33.7255 86.4 32.4 86.4C31.0745 86.4 30 87.4745 30 88.8C30 90.1255 31.0745 91.2 32.4 91.2Z" fill="#E74C3C"/>
<path d="M70.8 93.6L80.4 103.2Z" fill="black"/>
<path d="M70.8 93.6L80.4 103.2" stroke="#F39C12" stroke-width="2" stroke-linecap="round"/>
<path d="M80.4 103.2C82 101.6 82 100 80.4 98.4" stroke="#27AE60"/>
<g opacity="0.7">
<path d="M3.60001 33.6L15.6 45.6" stroke="white" stroke-dasharray="1 1"/>
<path d="M99.6 33.6L87.6 45.6" stroke="white" stroke-dasharray="1 1"/>
<path d="M8.39999 81.6L15.6 93.6" stroke="white" stroke-dasharray="1 1"/>
<path d="M94.8 81.6L87.6 93.6" stroke="white" stroke-dasharray="1 1"/>
</g>
<g opacity="0.8">
<path d="M3.6 37.2C5.58822 37.2 7.2 35.5882 7.2 33.6C7.2 31.6118 5.58822 30 3.6 30C1.61177 30 0 31.6118 0 33.6C0 35.5882 1.61177 37.2 3.6 37.2Z" fill="white"/>
<path d="M99.6 37.2C101.588 37.2 103.2 35.5882 103.2 33.6C103.2 31.6118 101.588 30 99.6 30C97.6118 30 96 31.6118 96 33.6C96 35.5882 97.6118 37.2 99.6 37.2Z" fill="white"/>
<path d="M8.39999 85.2C10.3882 85.2 12 83.5882 12 81.6C12 79.6118 10.3882 78 8.39999 78C6.41176 78 4.79999 79.6118 4.79999 81.6C4.79999 83.5882 6.41176 85.2 8.39999 85.2Z" fill="white"/>
<path d="M94.8 85.2C96.7882 85.2 98.4 83.5882 98.4 81.6C98.4 79.6118 96.7882 78 94.8 78C92.8118 78 91.2 79.6118 91.2 81.6C91.2 83.5882 92.8118 85.2 94.8 85.2Z" fill="white"/>
</g>
<defs>
<linearGradient id="paint0_linear_5_4" x1="15.6" y1="21.6" x2="9231.6" y2="6933.6" gradientUnits="userSpaceOnUse">
<stop stop-color="white"/>
<stop offset="1" stop-color="#ECF0F1"/>
</linearGradient>
</defs>
</svg>
